<svg width="101" height="101" viewBox="0 0 101 101" fill="none" xmlns="http://www.w3.org/2000/svg">
<path d="M27.3541 39.9793C27.3541 38.8632 27.7975 37.7928 28.5867 37.0036C29.3759 36.2144 30.4463 35.771 31.5625 35.771H65.2291C66.3452 35.771 67.4157 36.2144 68.2049 37.0036C68.9941 37.7928 69.4375 38.8632 69.4375 39.9793V79.9585C69.4375 79.9585 69.4375 92.5835 56.8125 92.5835H39.9791C27.3541 92.5835 27.3541 79.9585 27.3541 79.9585V39.9793Z" fill="#393E46" stroke="#393E46" stroke-width="2" stroke-linecap="round" stroke-linejoin="round"/>
<path d="M37.875 25.2501H58.9167M37.875 25.2501V35.7709H58.9167V25.2501M37.875 25.2501V18.9376C37.875 12.6251 44.1875 8.41675 50.5 8.41675H73.6458C73.6458 8.41675 58.9167 12.6251 58.9167 21.0417V25.2501" stroke="#393E46" stroke-width="2" stroke-linecap="round" stroke-linejoin="round"/>
</svg>
