<svg width="112" height="112" viewBox="0 0 112 112" fill="none" xmlns="http://www.w3.org/2000/svg">
<path d="M89.3705 52.098C85.1745 54.6486 80.3552 55.99 75.4448 55.9742C71.3311 55.9417 67.2638 55.1003 63.4748 53.498C60.5546 57.6206 58.9917 62.5508 59.0036 67.603V80.5048C59.0046 80.9846 58.907 81.4595 58.7168 81.9C58.5266 82.3405 58.2479 82.7372 57.8979 83.0654C57.5479 83.3937 57.1342 83.6464 56.6824 83.808C56.2306 83.9696 55.7505 84.0366 55.2717 84.0048C54.3721 83.9265 53.5353 83.511 52.9292 82.8416C52.3231 82.1722 51.9925 81.2984 52.0036 80.3955V74.9529L35.1073 58.0567C32.5956 58.9937 29.9393 59.4838 27.2586 59.5048C23.5681 59.5144 19.9466 58.5046 16.7936 56.5867C7.26046 50.7942 2.12858 37.4636 3.12171 20.913C3.17171 20.0567 3.53439 19.2486 4.14088 18.6421C4.74737 18.0356 5.55545 17.673 6.41171 17.6229C22.9623 16.6473 36.293 21.7617 42.068 31.2948C44.3369 35.0314 45.3274 39.4052 44.8898 43.7548C44.8626 44.0918 44.7384 44.4137 44.5321 44.6816C44.3259 44.9495 44.0464 45.1519 43.7276 45.2644C43.4087 45.3768 43.0641 45.3945 42.7354 45.3153C42.4068 45.2361 42.1081 45.0633 41.8755 44.8179L33.4755 36.0242C32.8137 35.3955 31.9326 35.0502 31.0199 35.0619C30.1073 35.0736 29.2353 35.4413 28.5899 36.0868C27.9445 36.7322 27.5767 37.6041 27.565 38.5168C27.5534 39.4295 27.8987 40.3106 28.5273 40.9723L52.0998 65.1442C52.1261 64.8029 52.1567 64.4617 52.1917 64.1248C52.9571 57.6356 55.8205 51.5738 60.3467 46.8611L82.4798 23.4723C83.1366 22.8162 83.5058 21.926 83.5062 20.9976C83.5066 20.0693 83.1382 19.1788 82.482 18.522C81.8259 17.8653 80.9357 17.4961 80.0073 17.4957C79.0789 17.4953 78.1884 17.8637 77.5317 18.5198L56.0942 41.1911C55.8796 41.4184 55.6081 41.584 55.3078 41.6709C55.0075 41.7577 54.6895 41.7625 54.3867 41.6848C54.0839 41.6071 53.8075 41.4497 53.5861 41.229C53.3648 41.0083 53.2066 40.7324 53.128 40.4298C51.0542 32.7823 51.9686 25.1698 55.928 18.6336C63.7417 5.73608 81.9242 -1.16767 104.569 0.162326C105.425 0.21233 106.234 0.575007 106.84 1.1815C107.447 1.78799 107.809 2.59608 107.859 3.45233C109.172 26.1017 102.268 44.2842 89.3705 52.098Z" fill="#393E46"/>
</svg>
