<svg width="108" height="108" viewBox="0 0 108 108" fill="none" xmlns="http://www.w3.org/2000/svg">
<path fill-rule="evenodd" clip-rule="evenodd" d="M78.75 18C79.3467 18 79.919 17.7629 80.341 17.341C80.763 16.919 81 16.3467 81 15.75C81 15.1533 80.763 14.581 80.341 14.159C79.919 13.7371 79.3467 13.5 78.75 13.5H74.25C73.6533 13.5 73.081 13.7371 72.659 14.159C72.2371 14.581 72 15.1533 72 15.75C72 16.3467 72.2371 16.919 72.659 17.341C73.081 17.7629 73.6533 18 74.25 18V20.475C72.8145 20.7675 71.4758 21.33 70.2968 22.113L68.4315 20.25C68.8414 19.8256 69.0681 19.2573 69.063 18.6673C69.0579 18.0774 68.8213 17.5131 68.4041 17.0959C67.9869 16.6787 67.4226 16.4421 66.8327 16.437C66.2427 16.4319 65.6744 16.6586 65.25 17.0685L63.6795 18.639L63.657 18.6593L63.639 18.6818L62.0685 20.25C61.6587 20.6744 61.4319 21.2427 61.437 21.8327C61.4421 22.4226 61.6787 22.9869 62.0959 23.4041C62.5131 23.8213 63.0774 24.0579 63.6674 24.063C64.2573 24.0681 64.8257 23.8414 65.25 23.4315L67.113 25.2968C66.3191 26.4976 65.7631 27.8396 65.475 29.25H63C63 28.6533 62.763 28.081 62.341 27.659C61.919 27.2371 61.3467 27 60.75 27C60.1533 27 59.581 27.2371 59.159 27.659C58.7371 28.081 58.5 28.6533 58.5 29.25V33.75C58.5 34.3467 58.7371 34.919 59.159 35.341C59.581 35.7629 60.1533 36 60.75 36C61.3467 36 61.919 35.7629 62.341 35.341C62.763 34.919 63 34.3467 63 33.75H65.475C65.7675 35.1855 66.33 36.5243 67.113 37.7033L65.25 39.5685C65.0425 39.3536 64.7942 39.1822 64.5197 39.0643C64.2452 38.9464 63.9499 38.8843 63.6512 38.8817C63.3524 38.8791 63.0561 38.936 62.7796 39.0492C62.5031 39.1623 62.2519 39.3294 62.0406 39.5406C61.8294 39.7519 61.6623 40.0031 61.5492 40.2796C61.436 40.5561 61.3791 40.8524 61.3817 41.1512C61.3843 41.4499 61.4464 41.7451 61.5643 42.0197C61.6822 42.2942 61.8536 42.5424 62.0685 42.75L65.25 45.9315C65.6744 46.3414 66.2427 46.5681 66.8327 46.563C67.4226 46.5579 67.9869 46.3213 68.4041 45.9041C68.8213 45.4869 69.0579 44.9226 69.063 44.3327C69.0681 43.7427 68.8414 43.1744 68.4315 42.75L70.2968 40.887C71.4976 41.6809 72.8396 42.237 74.25 42.525V45C73.6533 45 73.081 45.2371 72.659 45.659C72.2371 46.081 72 46.6533 72 47.25C72 47.8467 72.2371 48.419 72.659 48.841C73.081 49.2629 73.6533 49.5 74.25 49.5H78.75C79.3467 49.5 79.919 49.2629 80.341 48.841C80.763 48.419 81 47.8467 81 47.25C81 46.6533 80.763 46.081 80.341 45.659C79.919 45.2371 79.3467 45 78.75 45V42.525C80.1604 42.237 81.5024 41.6809 82.7033 40.887L84.5685 42.75C84.1587 43.1744 83.9319 43.7427 83.937 44.3327C83.9421 44.9226 84.1787 45.4869 84.5959 45.9041C85.0131 46.3213 85.5774 46.5579 86.1674 46.563C86.7573 46.5681 87.3257 46.3414 87.75 45.9315L90.9315 42.75C91.3414 42.3256 91.5682 41.7573 91.563 41.1673C91.5579 40.5774 91.3213 40.0131 90.9041 39.5959C90.4869 39.1787 89.9226 38.9421 89.3327 38.937C88.7427 38.9319 88.1744 39.1586 87.75 39.5685L85.887 37.7033C86.6809 36.5024 87.237 35.1604 87.525 33.75H90C90 34.3467 90.2371 34.919 90.659 35.341C91.081 35.7629 91.6533 36 92.25 36C92.8467 36 93.419 35.7629 93.841 35.341C94.263 34.919 94.5 34.3467 94.5 33.75V29.25C94.5 28.6533 94.263 28.081 93.841 27.659C93.419 27.2371 92.8467 27 92.25 27C91.6533 27 91.081 27.2371 90.659 27.659C90.2371 28.081 90 28.6533 90 29.25H87.525C87.237 27.8396 86.6809 26.4976 85.887 25.2968L87.75 23.4315C87.9576 23.6464 88.2058 23.8178 88.4803 23.9357C88.7549 24.0536 89.0501 24.1157 89.3489 24.1183C89.6476 24.1209 89.9439 24.064 90.2204 23.9508C90.4969 23.8377 90.7481 23.6706 90.9594 23.4594C91.1707 23.2481 91.3377 22.9969 91.4509 22.7204C91.564 22.4439 91.6209 22.1476 91.6183 21.8488C91.6157 21.5501 91.5536 21.2548 91.4357 20.9803C91.3178 20.7058 91.1464 20.4576 90.9315 20.25L87.75 17.0685C87.5424 16.8536 87.2942 16.6822 87.0197 16.5643C86.7452 16.4464 86.4499 16.3843 86.1512 16.3817C85.8524 16.3791 85.5561 16.436 85.2796 16.5492C85.0031 16.6623 84.7519 16.8294 84.5406 17.0406C84.3294 17.2519 84.1623 17.5031 84.0492 17.7796C83.936 18.0561 83.8791 18.3524 83.8817 18.6512C83.8843 18.9499 83.9464 19.2452 84.0643 19.5197C84.1822 19.7942 84.3536 20.0424 84.5685 20.25L82.7033 22.113C81.5024 21.3191 80.1604 20.763 78.75 20.475V18ZM33.6398 25.1032L29.7428 27.3532L32.184 31.5833C31.277 32.6445 30.7213 33.9609 30.5936 35.3511C30.4659 36.7413 30.7723 38.137 31.4708 39.3457L31.9703 40.212C28.3689 42.563 25.411 45.7754 23.3645 49.558C21.318 53.3407 20.2475 57.5742 20.25 61.875C20.25 64.683 20.7 67.392 21.528 69.93C19.0208 71.9302 16.9969 74.47 15.607 77.3605C14.2171 80.251 13.4969 83.4177 13.5 86.625C13.5 88.8075 13.8285 90.9225 14.4405 92.9115L14.9288 94.5H87.75C88.3467 94.5 88.919 94.2629 89.341 93.841C89.763 93.419 90 92.8467 90 92.25C90 91.6533 89.763 91.081 89.341 90.659C88.919 90.2371 88.3467 90 87.75 90H55.9845C56.6245 85.9479 56.0937 81.7973 54.4545 78.0367L85.1468 60.3158L82.8968 56.4188L52.2203 74.1307C50.2411 71.3804 47.6359 69.1406 44.6198 67.5963C41.6037 66.0521 38.2634 65.2478 34.875 65.25C31.6174 65.245 28.4021 65.9878 25.4768 67.4212C24.9926 65.6123 24.7483 63.7476 24.75 61.875C24.7475 58.364 25.6108 54.9066 27.2635 51.8089C28.9161 48.7112 31.3071 46.0688 34.2248 44.1158L40.4708 54.9338C41.3659 56.484 42.8402 57.6153 44.5694 58.0786C46.2985 58.5419 48.1409 58.2993 49.6913 57.4043L51.6398 56.2793L53.8898 60.1763L57.7868 57.9263L55.5368 54.0293L57.4853 52.9043C59.0355 52.0091 60.1668 50.5348 60.6301 48.8056C61.0934 47.0765 60.8508 45.2341 59.9558 43.6838L50.9558 28.0958C50.258 26.8868 49.2027 25.9239 47.935 25.3396C46.6673 24.7553 45.2497 24.5784 43.8773 24.8332L41.4338 20.6032L37.5368 22.8532L34.1618 17.0078L30.2648 19.2578L33.6398 25.1032ZM52.2203 74.1307L41.9783 80.0438L44.2283 83.9408L54.4545 78.0367C53.8493 76.6598 53.1004 75.3505 52.2203 74.1307Z" fill="#393E46"/>
</svg>
